# xmcd
#
# Track frame offsets:
# 150
# 20492
# 40282
# 55885
# 65832
# 83972
# 106545
# 115055
# 120022
# 125485
# 152177
# 157605
# 181857
# 204622
# 221910
# 243422
# 272870
#
# Disc length: 3777 seconds
#
#
# Revision: 0
# Processed by: cddbd v1.5PL3 Copyright (c) Steve Scherf et al.
# Submitted via: FreeRIP 2.53 
#
DISCID=e50ebf11
DTITLE=Marvin Gaye - The Last Concert Tour
DYEAR=1991
DGENRE=R&B
TTITLE0=**Introduction** - Special Love
TTITLE1=Heard It Through The Grapevine
TTITLE2=Come To Bed
TTITLE3=Mercy Mercy Me
TTITLE4=What's Going On
TTITLE5=Ain't Nothin' Like The Real Thing
TTITLE6=Heaven Must Have Sent You
TTITLE7=Love Twins
TTITLE8=If The World Were Mine
TTITLE9=Joy
TTITLE10=**Intermission**
TTITLE11=Inner City Blues (Make Me Wanna Holler)
TTITLE12=Let's Get It On
TTITLE13=Let's Get Close
TTITLE14=Rockin' After Midnight
TTITLE15=Sexual Healing
TTITLE16=The Final Chapter
EXTD="The last concert tour Marvin Gaye ever gave, ..."
EXTT0=
EXTT1=
EXTT2=
EXTT3=
EXTT4=
EXTT5=
EXTT6=
EXTT7=
EXTT8=
EXTT9=
EXTT10=
EXTT11=
EXTT12=
EXTT13=
EXTT14=
EXTT15=
EXTT16=
PLAYORDER=
